<mxfile host="app.diagrams.net" agent="Mozilla/5.0 (X11; Ubuntu; Linux x86_64; rv:136.0) Gecko/20100101 Firefox/136.0" version="26.1.1">
  <diagram name="Page-1" id="6njeOHLOxly1dex572Ql">
    <mxGraphModel dx="1434" dy="790" grid="1" gridSize="10" guides="1" tooltips="1" connect="1" arrows="1" fold="1" page="1" pageScale="1" pageWidth="850" pageHeight="1100" math="0" shadow="0">
      <root>
        <mxCell id="0" />
        <mxCell id="1" parent="0" />
        <mxCell id="KrMvBfwTUlIPdrOFluQu-45" style="edgeStyle=orthogonalEdgeStyle;rounded=0;orthogonalLoop=1;jettySize=auto;html=1;" edge="1" parent="1" source="KrMvBfwTUlIPdrOFluQu-1" target="KrMvBfwTUlIPdrOFluQu-44">
          <mxGeometry relative="1" as="geometry" />
        </mxCell>
        <mxCell id="KrMvBfwTUlIPdrOFluQu-1" value="&lt;li class=&quot;&quot; data-end=&quot;230&quot; data-start=&quot;183&quot;&gt;&lt;p class=&quot;&quot; data-end=&quot;230&quot; data-start=&quot;185&quot;&gt;&lt;strong data-end=&quot;197&quot; data-start=&quot;185&quot;&gt;&lt;font style=&quot;font-size: 18px;&quot;&gt;Paciente&lt;/font&gt;&lt;/strong&gt;&lt;/p&gt;&lt;/li&gt;" style="rounded=0;whiteSpace=wrap;html=1;" vertex="1" parent="1">
          <mxGeometry x="120" y="110" width="120" height="60" as="geometry" />
        </mxCell>
        <mxCell id="KrMvBfwTUlIPdrOFluQu-59" style="edgeStyle=orthogonalEdgeStyle;rounded=0;orthogonalLoop=1;jettySize=auto;html=1;exitX=0;exitY=0.5;exitDx=0;exitDy=0;entryX=1;entryY=0.5;entryDx=0;entryDy=0;endArrow=none;startFill=0;dashed=1;" edge="1" parent="1" source="KrMvBfwTUlIPdrOFluQu-2" target="KrMvBfwTUlIPdrOFluQu-57">
          <mxGeometry relative="1" as="geometry">
            <mxPoint x="460" y="230" as="targetPoint" />
          </mxGeometry>
        </mxCell>
        <mxCell id="KrMvBfwTUlIPdrOFluQu-2" value="&lt;li class=&quot;&quot; data-end=&quot;275&quot; data-start=&quot;234&quot;&gt;&lt;p class=&quot;&quot; data-end=&quot;275&quot; data-start=&quot;236&quot;&gt;&lt;font style=&quot;font-size: 20px;&quot;&gt;&lt;strong data-end=&quot;244&quot; data-start=&quot;236&quot;&gt;Cita&lt;/strong&gt;&lt;/font&gt;&lt;/p&gt;&lt;/li&gt;" style="rounded=0;whiteSpace=wrap;html=1;" vertex="1" parent="1">
          <mxGeometry x="570" y="127.5" width="120" height="60" as="geometry" />
        </mxCell>
        <mxCell id="KrMvBfwTUlIPdrOFluQu-3" value="&lt;li class=&quot;&quot; data-end=&quot;339&quot; data-start=&quot;279&quot;&gt;&lt;p class=&quot;&quot; data-end=&quot;339&quot; data-start=&quot;281&quot;&gt;&lt;font style=&quot;font-size: 17px;&quot;&gt;&lt;strong data-end=&quot;296&quot; data-start=&quot;281&quot;&gt;Laboratorio&lt;/strong&gt;&lt;/font&gt;&lt;/p&gt;&lt;/li&gt;" style="rounded=0;whiteSpace=wrap;html=1;" vertex="1" parent="1">
          <mxGeometry x="510" y="450" width="120" height="60" as="geometry" />
        </mxCell>
        <mxCell id="KrMvBfwTUlIPdrOFluQu-4" value="&lt;li class=&quot;&quot; data-end=&quot;505&quot; data-start=&quot;440&quot;&gt;&lt;p class=&quot;&quot; data-end=&quot;505&quot; data-start=&quot;442&quot;&gt;&lt;font style=&quot;font-size: 17px;&quot;&gt;&lt;strong data-end=&quot;458&quot; data-start=&quot;442&quot;&gt;Estatus Cita&lt;/strong&gt; &lt;br&gt;&lt;/font&gt;&lt;/p&gt;&lt;/li&gt;" style="rounded=0;whiteSpace=wrap;html=1;" vertex="1" parent="1">
          <mxGeometry x="125" y="260" width="120" height="60" as="geometry" />
        </mxCell>
        <mxCell id="KrMvBfwTUlIPdrOFluQu-5" value="&lt;li class=&quot;&quot; data-end=&quot;436&quot; data-start=&quot;388&quot;&gt;&lt;p class=&quot;&quot; data-end=&quot;436&quot; data-start=&quot;390&quot;&gt;&lt;font style=&quot;font-size: 17px;&quot;&gt;&lt;strong data-end=&quot;400&quot; data-start=&quot;390&quot;&gt;&lt;font&gt;MÃ©dico&lt;/font&gt;&lt;/strong&gt;&lt;/font&gt;&lt;/p&gt;&lt;/li&gt;" style="rounded=0;whiteSpace=wrap;html=1;" vertex="1" parent="1">
          <mxGeometry x="512.5" y="620" width="120" height="60" as="geometry" />
        </mxCell>
        <mxCell id="KrMvBfwTUlIPdrOFluQu-6" value="&lt;li class=&quot;&quot; data-end=&quot;384&quot; data-start=&quot;343&quot;&gt;&lt;p class=&quot;&quot; data-end=&quot;384&quot; data-start=&quot;345&quot;&gt;&lt;font style=&quot;font-size: 16px;&quot;&gt;&lt;strong data-end=&quot;360&quot; data-start=&quot;345&quot;&gt;Consultorio&lt;/strong&gt; &lt;br&gt;&lt;/font&gt;&lt;/p&gt;&lt;/li&gt;" style="rounded=0;whiteSpace=wrap;html=1;" vertex="1" parent="1">
          <mxGeometry x="660" y="450" width="120" height="60" as="geometry" />
        </mxCell>
        <mxCell id="KrMvBfwTUlIPdrOFluQu-7" value="&lt;div&gt;ID Paciente&lt;/div&gt;" style="ellipse;whiteSpace=wrap;html=1;" vertex="1" parent="1">
          <mxGeometry x="80" y="55" width="80" height="30" as="geometry" />
        </mxCell>
        <mxCell id="KrMvBfwTUlIPdrOFluQu-8" value="Folio" style="ellipse;whiteSpace=wrap;html=1;" vertex="1" parent="1">
          <mxGeometry x="540" y="82.5" width="60" height="30" as="geometry" />
        </mxCell>
        <mxCell id="KrMvBfwTUlIPdrOFluQu-10" value="Nombre Completo" style="ellipse;whiteSpace=wrap;html=1;" vertex="1" parent="1">
          <mxGeometry x="170" y="55" width="110" height="30" as="geometry" />
        </mxCell>
        <mxCell id="KrMvBfwTUlIPdrOFluQu-12" value="Fecha" style="ellipse;whiteSpace=wrap;html=1;" vertex="1" parent="1">
          <mxGeometry x="600" y="62.5" width="60" height="30" as="geometry" />
        </mxCell>
        <mxCell id="KrMvBfwTUlIPdrOFluQu-13" value="Tipo de Cita" style="ellipse;whiteSpace=wrap;html=1;" vertex="1" parent="1">
          <mxGeometry x="660" y="82.5" width="80" height="30" as="geometry" />
        </mxCell>
        <mxCell id="KrMvBfwTUlIPdrOFluQu-14" value="RFC" style="ellipse;whiteSpace=wrap;html=1;" vertex="1" parent="1">
          <mxGeometry x="482.5" y="700" width="50" height="30" as="geometry" />
        </mxCell>
        <mxCell id="KrMvBfwTUlIPdrOFluQu-16" value="&amp;nbsp;CV en PDF" style="ellipse;whiteSpace=wrap;html=1;" vertex="1" parent="1">
          <mxGeometry x="592.5" y="690" width="70" height="30" as="geometry" />
        </mxCell>
        <mxCell id="KrMvBfwTUlIPdrOFluQu-17" value="Nombre Completo" style="ellipse;whiteSpace=wrap;html=1;" vertex="1" parent="1">
          <mxGeometry x="497.5" y="730" width="120" height="30" as="geometry" />
        </mxCell>
        <mxCell id="KrMvBfwTUlIPdrOFluQu-19" value="" style="endArrow=none;html=1;rounded=0;entryX=1;entryY=1;entryDx=0;entryDy=0;exitX=0.5;exitY=0;exitDx=0;exitDy=0;" edge="1" parent="1" source="KrMvBfwTUlIPdrOFluQu-1" target="KrMvBfwTUlIPdrOFluQu-7">
          <mxGeometry width="50" height="50" relative="1" as="geometry">
            <mxPoint x="20" y="185" as="sourcePoint" />
            <mxPoint x="70" y="135" as="targetPoint" />
          </mxGeometry>
        </mxCell>
        <mxCell id="KrMvBfwTUlIPdrOFluQu-20" value="" style="endArrow=none;html=1;rounded=0;entryX=0.5;entryY=1;entryDx=0;entryDy=0;exitX=0.5;exitY=0;exitDx=0;exitDy=0;" edge="1" parent="1" source="KrMvBfwTUlIPdrOFluQu-1" target="KrMvBfwTUlIPdrOFluQu-10">
          <mxGeometry width="50" height="50" relative="1" as="geometry">
            <mxPoint x="300" y="135" as="sourcePoint" />
            <mxPoint x="350" y="85" as="targetPoint" />
          </mxGeometry>
        </mxCell>
        <mxCell id="KrMvBfwTUlIPdrOFluQu-21" value="" style="endArrow=none;html=1;rounded=0;entryX=0.667;entryY=1;entryDx=0;entryDy=0;entryPerimeter=0;exitX=0.5;exitY=0;exitDx=0;exitDy=0;" edge="1" parent="1" source="KrMvBfwTUlIPdrOFluQu-2" target="KrMvBfwTUlIPdrOFluQu-8">
          <mxGeometry width="50" height="50" relative="1" as="geometry">
            <mxPoint x="430" y="242.5" as="sourcePoint" />
            <mxPoint x="480" y="192.5" as="targetPoint" />
          </mxGeometry>
        </mxCell>
        <mxCell id="KrMvBfwTUlIPdrOFluQu-22" value="" style="endArrow=none;html=1;rounded=0;entryX=0.5;entryY=1;entryDx=0;entryDy=0;exitX=0.5;exitY=0;exitDx=0;exitDy=0;" edge="1" parent="1" source="KrMvBfwTUlIPdrOFluQu-2" target="KrMvBfwTUlIPdrOFluQu-12">
          <mxGeometry width="50" height="50" relative="1" as="geometry">
            <mxPoint x="440" y="252.5" as="sourcePoint" />
            <mxPoint x="490" y="202.5" as="targetPoint" />
          </mxGeometry>
        </mxCell>
        <mxCell id="KrMvBfwTUlIPdrOFluQu-24" value="" style="endArrow=none;html=1;rounded=0;entryX=0.5;entryY=1;entryDx=0;entryDy=0;exitX=0.5;exitY=0;exitDx=0;exitDy=0;" edge="1" parent="1" source="KrMvBfwTUlIPdrOFluQu-2" target="KrMvBfwTUlIPdrOFluQu-13">
          <mxGeometry width="50" height="50" relative="1" as="geometry">
            <mxPoint x="640" y="137.5" as="sourcePoint" />
            <mxPoint x="640" y="102.5" as="targetPoint" />
          </mxGeometry>
        </mxCell>
        <mxCell id="KrMvBfwTUlIPdrOFluQu-25" value="" style="endArrow=none;html=1;rounded=0;entryX=0.5;entryY=0;entryDx=0;entryDy=0;exitX=0.5;exitY=1;exitDx=0;exitDy=0;" edge="1" parent="1" source="KrMvBfwTUlIPdrOFluQu-5" target="KrMvBfwTUlIPdrOFluQu-17">
          <mxGeometry width="50" height="50" relative="1" as="geometry">
            <mxPoint x="607.5" y="735" as="sourcePoint" />
            <mxPoint x="607.5" y="700" as="targetPoint" />
          </mxGeometry>
        </mxCell>
        <mxCell id="KrMvBfwTUlIPdrOFluQu-26" value="" style="endArrow=none;html=1;rounded=0;entryX=1;entryY=0;entryDx=0;entryDy=0;exitX=0.25;exitY=1;exitDx=0;exitDy=0;" edge="1" parent="1" source="KrMvBfwTUlIPdrOFluQu-5" target="KrMvBfwTUlIPdrOFluQu-14">
          <mxGeometry width="50" height="50" relative="1" as="geometry">
            <mxPoint x="637.5" y="855" as="sourcePoint" />
            <mxPoint x="637.5" y="820" as="targetPoint" />
          </mxGeometry>
        </mxCell>
        <mxCell id="KrMvBfwTUlIPdrOFluQu-27" value="" style="endArrow=none;html=1;rounded=0;entryX=0.5;entryY=0;entryDx=0;entryDy=0;exitX=0.75;exitY=1;exitDx=0;exitDy=0;" edge="1" parent="1" source="KrMvBfwTUlIPdrOFluQu-5" target="KrMvBfwTUlIPdrOFluQu-16">
          <mxGeometry width="50" height="50" relative="1" as="geometry">
            <mxPoint x="647.5" y="865" as="sourcePoint" />
            <mxPoint x="647.5" y="830" as="targetPoint" />
          </mxGeometry>
        </mxCell>
        <mxCell id="KrMvBfwTUlIPdrOFluQu-28" value="NÃºmero" style="ellipse;whiteSpace=wrap;html=1;" vertex="1" parent="1">
          <mxGeometry x="397.5" y="400" width="70" height="30" as="geometry" />
        </mxCell>
        <mxCell id="KrMvBfwTUlIPdrOFluQu-29" value="Tipo de Examen" style="ellipse;whiteSpace=wrap;html=1;" vertex="1" parent="1">
          <mxGeometry x="382.5" y="320" width="102.5" height="30" as="geometry" />
        </mxCell>
        <mxCell id="KrMvBfwTUlIPdrOFluQu-30" value="Requiere Ayuno" style="ellipse;whiteSpace=wrap;html=1;" vertex="1" parent="1">
          <mxGeometry x="382.5" y="360" width="100" height="30" as="geometry" />
        </mxCell>
        <mxCell id="KrMvBfwTUlIPdrOFluQu-32" value="" style="endArrow=none;html=1;rounded=0;entryX=1;entryY=0.5;entryDx=0;entryDy=0;exitX=0.042;exitY=0.4;exitDx=0;exitDy=0;exitPerimeter=0;" edge="1" parent="1" source="KrMvBfwTUlIPdrOFluQu-47" target="KrMvBfwTUlIPdrOFluQu-29">
          <mxGeometry width="50" height="50" relative="1" as="geometry">
            <mxPoint x="510" y="355" as="sourcePoint" />
            <mxPoint x="605" y="490" as="targetPoint" />
          </mxGeometry>
        </mxCell>
        <mxCell id="KrMvBfwTUlIPdrOFluQu-33" value="" style="endArrow=none;html=1;rounded=0;entryX=1;entryY=0;entryDx=0;entryDy=0;exitX=0;exitY=1;exitDx=0;exitDy=0;" edge="1" parent="1" source="KrMvBfwTUlIPdrOFluQu-47" target="KrMvBfwTUlIPdrOFluQu-28">
          <mxGeometry width="50" height="50" relative="1" as="geometry">
            <mxPoint x="605" y="510" as="sourcePoint" />
            <mxPoint x="615" y="470" as="targetPoint" />
          </mxGeometry>
        </mxCell>
        <mxCell id="KrMvBfwTUlIPdrOFluQu-34" value="" style="endArrow=none;html=1;rounded=0;entryX=1;entryY=0.5;entryDx=0;entryDy=0;exitX=0;exitY=0.75;exitDx=0;exitDy=0;" edge="1" parent="1" source="KrMvBfwTUlIPdrOFluQu-47" target="KrMvBfwTUlIPdrOFluQu-30">
          <mxGeometry width="50" height="50" relative="1" as="geometry">
            <mxPoint x="510" y="370" as="sourcePoint" />
            <mxPoint x="625" y="510" as="targetPoint" />
          </mxGeometry>
        </mxCell>
        <mxCell id="KrMvBfwTUlIPdrOFluQu-35" value="Nombre del estatus" style="ellipse;whiteSpace=wrap;html=1;" vertex="1" parent="1">
          <mxGeometry x="55" y="220" width="100" height="30" as="geometry" />
        </mxCell>
        <mxCell id="KrMvBfwTUlIPdrOFluQu-36" value="" style="endArrow=none;html=1;rounded=0;entryX=0.5;entryY=1;entryDx=0;entryDy=0;exitX=0.5;exitY=0;exitDx=0;exitDy=0;" edge="1" parent="1" source="KrMvBfwTUlIPdrOFluQu-4" target="KrMvBfwTUlIPdrOFluQu-35">
          <mxGeometry width="50" height="50" relative="1" as="geometry">
            <mxPoint x="93" y="310" as="sourcePoint" />
            <mxPoint x="85" y="257" as="targetPoint" />
          </mxGeometry>
        </mxCell>
        <mxCell id="KrMvBfwTUlIPdrOFluQu-37" value="" style="endArrow=none;html=1;rounded=0;entryX=0.5;entryY=1;entryDx=0;entryDy=0;exitX=0.5;exitY=0;exitDx=0;exitDy=0;" edge="1" parent="1" source="KrMvBfwTUlIPdrOFluQu-4" target="KrMvBfwTUlIPdrOFluQu-40">
          <mxGeometry width="50" height="50" relative="1" as="geometry">
            <mxPoint x="103" y="320" as="sourcePoint" />
            <mxPoint x="95" y="267" as="targetPoint" />
          </mxGeometry>
        </mxCell>
        <mxCell id="KrMvBfwTUlIPdrOFluQu-38" value="" style="endArrow=none;html=1;rounded=0;entryX=0.5;entryY=1;entryDx=0;entryDy=0;exitX=0.5;exitY=0;exitDx=0;exitDy=0;" edge="1" parent="1" source="KrMvBfwTUlIPdrOFluQu-49" target="KrMvBfwTUlIPdrOFluQu-39">
          <mxGeometry width="50" height="50" relative="1" as="geometry">
            <mxPoint x="638" y="535" as="sourcePoint" />
            <mxPoint x="630" y="482" as="targetPoint" />
          </mxGeometry>
        </mxCell>
        <mxCell id="KrMvBfwTUlIPdrOFluQu-39" value="NÃºmero, DiagnÃ³stico" style="ellipse;whiteSpace=wrap;html=1;" vertex="1" parent="1">
          <mxGeometry x="680" y="230" width="100" height="30" as="geometry" />
        </mxCell>
        <mxCell id="KrMvBfwTUlIPdrOFluQu-40" value="Fecha de actualizaciÃ³n" style="ellipse;whiteSpace=wrap;html=1;" vertex="1" parent="1">
          <mxGeometry x="205" y="220" width="100" height="30" as="geometry" />
        </mxCell>
        <mxCell id="KrMvBfwTUlIPdrOFluQu-41" value="NÃºmero, DiagnÃ³stico" style="ellipse;whiteSpace=wrap;html=1;" vertex="1" parent="1">
          <mxGeometry x="740" y="270" width="100" height="30" as="geometry" />
        </mxCell>
        <mxCell id="KrMvBfwTUlIPdrOFluQu-42" value="" style="endArrow=none;html=1;rounded=0;entryX=0.5;entryY=1;entryDx=0;entryDy=0;exitX=0.5;exitY=0;exitDx=0;exitDy=0;" edge="1" parent="1" source="KrMvBfwTUlIPdrOFluQu-49" target="KrMvBfwTUlIPdrOFluQu-41">
          <mxGeometry width="50" height="50" relative="1" as="geometry">
            <mxPoint x="620" y="595" as="sourcePoint" />
            <mxPoint x="580" y="575" as="targetPoint" />
          </mxGeometry>
        </mxCell>
        <mxCell id="KrMvBfwTUlIPdrOFluQu-46" style="edgeStyle=orthogonalEdgeStyle;rounded=0;orthogonalLoop=1;jettySize=auto;html=1;" edge="1" parent="1" source="KrMvBfwTUlIPdrOFluQu-44" target="KrMvBfwTUlIPdrOFluQu-2">
          <mxGeometry relative="1" as="geometry" />
        </mxCell>
        <mxCell id="KrMvBfwTUlIPdrOFluQu-44" value="registra" style="rhombus;whiteSpace=wrap;html=1;" vertex="1" parent="1">
          <mxGeometry x="340" y="136.25" width="110" height="42.5" as="geometry" />
        </mxCell>
        <mxCell id="KrMvBfwTUlIPdrOFluQu-47" value="&lt;li class=&quot;&quot; data-end=&quot;275&quot; data-start=&quot;234&quot;&gt;&lt;p class=&quot;&quot; data-end=&quot;275&quot; data-start=&quot;236&quot;&gt;&lt;font style=&quot;font-size: 20px;&quot;&gt;&lt;strong data-end=&quot;244&quot; data-start=&quot;236&quot;&gt;Cita&lt;br&gt; (Lab.)&lt;/strong&gt;&lt;/font&gt;&lt;/p&gt;&lt;/li&gt;" style="rounded=0;whiteSpace=wrap;html=1;" vertex="1" parent="1">
          <mxGeometry x="510" y="310" width="120" height="60" as="geometry" />
        </mxCell>
        <mxCell id="KrMvBfwTUlIPdrOFluQu-49" value="&lt;li class=&quot;&quot; data-end=&quot;275&quot; data-start=&quot;234&quot;&gt;&lt;p class=&quot;&quot; data-end=&quot;275&quot; data-start=&quot;236&quot;&gt;&lt;font style=&quot;font-size: 20px;&quot;&gt;&lt;strong data-end=&quot;244&quot; data-start=&quot;236&quot;&gt;Cita&lt;br&gt; (MÃ©dica)&lt;/strong&gt;&lt;/font&gt;&lt;/p&gt;&lt;/li&gt;" style="rounded=0;whiteSpace=wrap;html=1;" vertex="1" parent="1">
          <mxGeometry x="660" y="310" width="120" height="60" as="geometry" />
        </mxCell>
        <mxCell id="KrMvBfwTUlIPdrOFluQu-50" value="" style="triangle;whiteSpace=wrap;html=1;rotation=90;" vertex="1" parent="1">
          <mxGeometry x="600" y="225" width="60" height="80" as="geometry" />
        </mxCell>
        <mxCell id="KrMvBfwTUlIPdrOFluQu-52" value="" style="endArrow=classic;html=1;rounded=0;exitX=0.5;exitY=1;exitDx=0;exitDy=0;entryX=0.5;entryY=0;entryDx=0;entryDy=0;" edge="1" parent="1" source="KrMvBfwTUlIPdrOFluQu-50" target="KrMvBfwTUlIPdrOFluQu-47">
          <mxGeometry width="50" height="50" relative="1" as="geometry">
            <mxPoint x="600" y="392.5" as="sourcePoint" />
            <mxPoint x="650" y="342.5" as="targetPoint" />
          </mxGeometry>
        </mxCell>
        <mxCell id="KrMvBfwTUlIPdrOFluQu-53" value="" style="endArrow=classic;html=1;rounded=0;entryX=0.5;entryY=0;entryDx=0;entryDy=0;exitX=0.5;exitY=0;exitDx=0;exitDy=0;" edge="1" parent="1" source="KrMvBfwTUlIPdrOFluQu-50" target="KrMvBfwTUlIPdrOFluQu-49">
          <mxGeometry width="50" height="50" relative="1" as="geometry">
            <mxPoint x="610" y="402.5" as="sourcePoint" />
            <mxPoint x="660" y="352.5" as="targetPoint" />
          </mxGeometry>
        </mxCell>
        <mxCell id="KrMvBfwTUlIPdrOFluQu-54" value="" style="ellipse;whiteSpace=wrap;html=1;aspect=fixed;" vertex="1" parent="1">
          <mxGeometry x="620" y="197.5" width="20" height="20" as="geometry" />
        </mxCell>
        <mxCell id="KrMvBfwTUlIPdrOFluQu-55" value="" style="endArrow=none;html=1;rounded=0;entryX=0.5;entryY=1;entryDx=0;entryDy=0;exitX=0;exitY=0.5;exitDx=0;exitDy=0;" edge="1" parent="1" source="KrMvBfwTUlIPdrOFluQu-50" target="KrMvBfwTUlIPdrOFluQu-54">
          <mxGeometry width="50" height="50" relative="1" as="geometry">
            <mxPoint x="600" y="367.5" as="sourcePoint" />
            <mxPoint x="650" y="317.5" as="targetPoint" />
          </mxGeometry>
        </mxCell>
        <mxCell id="KrMvBfwTUlIPdrOFluQu-56" value="" style="endArrow=none;html=1;rounded=0;entryX=0.5;entryY=1;entryDx=0;entryDy=0;exitX=0.5;exitY=0;exitDx=0;exitDy=0;" edge="1" parent="1" source="KrMvBfwTUlIPdrOFluQu-54" target="KrMvBfwTUlIPdrOFluQu-2">
          <mxGeometry width="50" height="50" relative="1" as="geometry">
            <mxPoint x="640" y="270" as="sourcePoint" />
            <mxPoint x="640" y="240" as="targetPoint" />
          </mxGeometry>
        </mxCell>
        <mxCell id="KrMvBfwTUlIPdrOFluQu-57" value="tiene" style="rhombus;whiteSpace=wrap;html=1;" vertex="1" parent="1">
          <mxGeometry x="340" y="197.5" width="110" height="42.5" as="geometry" />
        </mxCell>
        <mxCell id="KrMvBfwTUlIPdrOFluQu-60" style="edgeStyle=orthogonalEdgeStyle;rounded=0;orthogonalLoop=1;jettySize=auto;html=1;exitX=0;exitY=0.5;exitDx=0;exitDy=0;entryX=1;entryY=0.5;entryDx=0;entryDy=0;dashed=1;" edge="1" parent="1" source="KrMvBfwTUlIPdrOFluQu-57" target="KrMvBfwTUlIPdrOFluQu-4">
          <mxGeometry relative="1" as="geometry">
            <Array as="points">
              <mxPoint x="320" y="219" />
              <mxPoint x="320" y="290" />
            </Array>
          </mxGeometry>
        </mxCell>
        <mxCell id="KrMvBfwTUlIPdrOFluQu-61" value="(1, 1)" style="text;html=1;align=center;verticalAlign=middle;whiteSpace=wrap;rounded=0;" vertex="1" parent="1">
          <mxGeometry x="240" y="262.5" width="60" height="30" as="geometry" />
        </mxCell>
        <mxCell id="KrMvBfwTUlIPdrOFluQu-67" style="edgeStyle=orthogonalEdgeStyle;rounded=0;orthogonalLoop=1;jettySize=auto;html=1;exitX=1;exitY=0;exitDx=0;exitDy=0;entryX=1;entryY=0.5;entryDx=0;entryDy=0;endArrow=none;startFill=1;startArrow=oval;" edge="1" parent="1" source="KrMvBfwTUlIPdrOFluQu-62" target="KrMvBfwTUlIPdrOFluQu-66">
          <mxGeometry relative="1" as="geometry">
            <Array as="points">
              <mxPoint x="570" y="160" />
              <mxPoint x="550" y="160" />
              <mxPoint x="550" y="271" />
            </Array>
          </mxGeometry>
        </mxCell>
        <mxCell id="KrMvBfwTUlIPdrOFluQu-62" value="(0, *)" style="text;html=1;align=center;verticalAlign=middle;whiteSpace=wrap;rounded=0;" vertex="1" parent="1">
          <mxGeometry x="452.5" y="190" width="60" height="30" as="geometry" />
        </mxCell>
        <mxCell id="KrMvBfwTUlIPdrOFluQu-63" value="(1, 1)" style="text;html=1;align=center;verticalAlign=middle;whiteSpace=wrap;rounded=0;" vertex="1" parent="1">
          <mxGeometry x="240" y="112.5" width="60" height="30" as="geometry" />
        </mxCell>
        <mxCell id="KrMvBfwTUlIPdrOFluQu-64" value="(1, 1)" style="text;html=1;align=center;verticalAlign=middle;whiteSpace=wrap;rounded=0;" vertex="1" parent="1">
          <mxGeometry x="510" y="120" width="60" height="30" as="geometry" />
        </mxCell>
        <mxCell id="KrMvBfwTUlIPdrOFluQu-65" value="(1, 1)" style="text;html=1;align=center;verticalAlign=middle;whiteSpace=wrap;rounded=0;" vertex="1" parent="1">
          <mxGeometry x="365" y="106.25" width="60" height="30" as="geometry" />
        </mxCell>
        <mxCell id="KrMvBfwTUlIPdrOFluQu-68" style="edgeStyle=orthogonalEdgeStyle;rounded=0;orthogonalLoop=1;jettySize=auto;html=1;exitX=0;exitY=0.5;exitDx=0;exitDy=0;entryX=1;entryY=0.75;entryDx=0;entryDy=0;endArrow=oval;endFill=1;" edge="1" parent="1" source="KrMvBfwTUlIPdrOFluQu-66" target="KrMvBfwTUlIPdrOFluQu-4">
          <mxGeometry relative="1" as="geometry">
            <Array as="points">
              <mxPoint x="340" y="305" />
            </Array>
          </mxGeometry>
        </mxCell>
        <mxCell id="KrMvBfwTUlIPdrOFluQu-66" value="historial" style="rhombus;whiteSpace=wrap;html=1;" vertex="1" parent="1">
          <mxGeometry x="340" y="250" width="110" height="42.5" as="geometry" />
        </mxCell>
        <mxCell id="KrMvBfwTUlIPdrOFluQu-69" value="(1, *)" style="text;html=1;align=center;verticalAlign=middle;whiteSpace=wrap;rounded=0;" vertex="1" parent="1">
          <mxGeometry x="240" y="305" width="60" height="30" as="geometry" />
        </mxCell>
        <mxCell id="KrMvBfwTUlIPdrOFluQu-70" value="(0, *)" style="text;html=1;align=center;verticalAlign=middle;whiteSpace=wrap;rounded=0;" vertex="1" parent="1">
          <mxGeometry x="497.5" y="240" width="60" height="30" as="geometry" />
        </mxCell>
      </root>
    </mxGraphModel>
  </diagram>
</mxfile>
